<svg xmlns="http://www.w3.org/2000/svg" viewBox="0 0 192 192" width="192" height="192">
  <defs>
    <radialGradient id="bqbsqt_bg" cx="56%" cy="42%" r="70%"><stop offset="0%" stop-color="#0e1626"></stop><stop offset="100%" stop-color="#06090f"></stop></radialGradient>
    <filter id="bqbsqt_gc" x="-80%" y="-80%" width="260%" height="260%"><feGaussianBlur stdDeviation="2.688"></feGaussianBlur></filter>
    <filter id="bqbsqt_gc2" x="-120%" y="-120%" width="340%" height="340%"><feGaussianBlur stdDeviation="4.6080000000000005"></feGaussianBlur></filter>
    <filter id="bqbsqt_gv" x="-80%" y="-80%" width="260%" height="260%"><feGaussianBlur stdDeviation="3.2256"></feGaussianBlur></filter>
    <filter id="bqbsqt_halo" x="-60%" y="-60%" width="220%" height="220%"><feGaussianBlur stdDeviation="10.56"></feGaussianBlur></filter>
    <filter id="bqbsqt_fiss" x="-200%" y="-30%" width="500%" height="160%"><feGaussianBlur stdDeviation="2.3040000000000003"></feGaussianBlur></filter>
    <clipPath id="bqbsqt_clip"><rect width="192" height="192" rx="42.624" ry="42.624"></rect></clipPath>
    <linearGradient id="bqbsqt_lf" x1="0%" y1="0%" x2="0%" y2="100%"><stop offset="0%" stop-color="#5ad6ee" stop-opacity="0.165"></stop><stop offset="100%" stop-color="#9b7bff" stop-opacity="0.066"></stop></linearGradient>
    <linearGradient id="bqbsqt_ls" x1="0%" y1="0%" x2="0%" y2="100%"><stop offset="0%" stop-color="#5ad6ee" stop-opacity="0.62"></stop><stop offset="50%" stop-color="#93ecff" stop-opacity="0.496"></stop><stop offset="100%" stop-color="#9b7bff" stop-opacity="0.434"></stop></linearGradient>
    <radialGradient id="bqbsqt_hg" cx="50%" cy="50%" r="50%"><stop offset="0%" stop-color="#5ad6ee" stop-opacity="0.32"></stop><stop offset="55%" stop-color="#9b7bff" stop-opacity="0.12"></stop><stop offset="100%" stop-color="#9b7bff" stop-opacity="0"></stop></radialGradient>
  </defs>
  <g clip-path="url(#bqbsqt_clip)">
    <rect width="192" height="192" fill="url(#bqbsqt_bg)"></rect>
    <rect width="192" height="192" fill="url(#bqbsqt_hg)" filter="url(#bqbsqt_halo)" opacity="0.85"></rect>
    <path d="M 96,42.0864 C 90.4704,32.40959999999999 69.7344,28.2624 57.29279999999999,39.3216 C 46.233599999999996,50.380799999999994 42.0864,61.44 39.3216,73.88159999999999 C 32.40959999999999,83.5584 29.644800000000004,96 33.791999999999994,107.0592 C 39.3216,120.8832 46.233599999999996,131.94240000000002 55.9104,140.23680000000002 C 66.9696,149.9136 83.5584,154.752 96,149.9136 Z" fill="url(#bqbsqt_lf)" opacity="0.9"></path>
    <path d="M 96,42.0864 C 101.5296,32.40959999999999 122.2656,28.2624 134.7072,39.3216 C 145.7664,50.380799999999994 149.9136,61.44 152.6784,73.88159999999999 C 159.59040000000002,83.5584 162.3552,96 158.208,107.0592 C 152.6784,120.8832 145.7664,131.94240000000002 136.0896,140.23680000000002 C 125.0304,149.9136 108.4416,154.752 96,149.9136 Z" fill="url(#bqbsqt_lf)" opacity="0.9"></path>
    <path d="M 96,42.0864 C 90.4704,32.40959999999999 69.7344,28.2624 57.29279999999999,39.3216 C 46.233599999999996,50.380799999999994 42.0864,61.44 39.3216,73.88159999999999 C 32.40959999999999,83.5584 29.644800000000004,96 33.791999999999994,107.0592 C 39.3216,120.8832 46.233599999999996,131.94240000000002 55.9104,140.23680000000002 C 66.9696,149.9136 83.5584,154.752 96,149.9136 Z" fill="none" stroke="#5ad6ee" stroke-width="3.84" opacity="0.18" filter="url(#bqbsqt_gc2)"></path>
    <path d="M 96,42.0864 C 101.5296,32.40959999999999 122.2656,28.2624 134.7072,39.3216 C 145.7664,50.380799999999994 149.9136,61.44 152.6784,73.88159999999999 C 159.59040000000002,83.5584 162.3552,96 158.208,107.0592 C 152.6784,120.8832 145.7664,131.94240000000002 136.0896,140.23680000000002 C 125.0304,149.9136 108.4416,154.752 96,149.9136 Z" fill="none" stroke="#5ad6ee" stroke-width="3.84" opacity="0.18" filter="url(#bqbsqt_gc2)"></path>
    <path d="M 96,42.0864 C 90.4704,32.40959999999999 69.7344,28.2624 57.29279999999999,39.3216 C 46.233599999999996,50.380799999999994 42.0864,61.44 39.3216,73.88159999999999 C 32.40959999999999,83.5584 29.644800000000004,96 33.791999999999994,107.0592 C 39.3216,120.8832 46.233599999999996,131.94240000000002 55.9104,140.23680000000002 C 66.9696,149.9136 83.5584,154.752 96,149.9136 Z" fill="none" stroke="url(#bqbsqt_ls)" stroke-width="1.536"></path>
    <path d="M 96,42.0864 C 101.5296,32.40959999999999 122.2656,28.2624 134.7072,39.3216 C 145.7664,50.380799999999994 149.9136,61.44 152.6784,73.88159999999999 C 159.59040000000002,83.5584 162.3552,96 158.208,107.0592 C 152.6784,120.8832 145.7664,131.94240000000002 136.0896,140.23680000000002 C 125.0304,149.9136 108.4416,154.752 96,149.9136 Z" fill="none" stroke="url(#bqbsqt_ls)" stroke-width="1.536"></path>
    <path d="M 78.02879999999999,48.9984 C 69.7344,47.616 61.44,48.9984 54.528,55.9104" fill="none" stroke="#5ad6ee" stroke-width="0.8" opacity="0.22" stroke-linecap="round"></path>
    <path d="M 47.616,82.176 C 39.3216,89.088 36.556799999999996,98.7648 40.70399999999999,108.4416" fill="none" stroke="#5ad6ee" stroke-width="0.8" opacity="0.22" stroke-linecap="round"></path>
    <path d="M 80.7936,125.0304 C 69.7344,131.94240000000002 61.44,136.0896 58.6752,143.0016" fill="none" stroke="#5ad6ee" stroke-width="0.8" opacity="0.22" stroke-linecap="round"></path>
    <path d="M 113.97120000000001,48.9984 C 122.2656,47.616 130.56,48.9984 137.472,55.9104" fill="none" stroke="#5ad6ee" stroke-width="0.8" opacity="0.22" stroke-linecap="round"></path>
    <path d="M 144.38400000000001,82.176 C 152.6784,89.088 155.4432,98.7648 151.296,108.4416" fill="none" stroke="#5ad6ee" stroke-width="0.8" opacity="0.22" stroke-linecap="round"></path>
    <path d="M 111.2064,125.0304 C 122.2656,131.94240000000002 130.56,136.0896 133.3248,143.0016" fill="none" stroke="#5ad6ee" stroke-width="0.8" opacity="0.22" stroke-linecap="round"></path>
    <line x1="96" y1="42.0864" x2="96" y2="149.9136" stroke="#93ecff" stroke-width="2.3040000000000003" opacity="0.55" stroke-linecap="round" filter="url(#bqbsqt_fiss)"></line>
    <line x1="96" y1="42.0864" x2="96" y2="149.9136" stroke="#e8f9ff" stroke-width="0.8" stroke-linecap="round" opacity="0.85"></line>
    <line x1="86.78399999999999" y1="64.20479999999999" x2="105.21600000000001" y2="64.20479999999999" stroke="#93ecff" stroke-width="2" opacity="0.24" stroke-linecap="round" filter="url(#bqbsqt_gc)"></line><line x1="86.78399999999999" y1="64.20479999999999" x2="105.21600000000001" y2="64.20479999999999" stroke="#d4f6ff" stroke-width="0.8" opacity="0.44999999999999996" stroke-linecap="round"></line>
    <line x1="86.78399999999999" y1="96" x2="105.21600000000001" y2="96" stroke="#93ecff" stroke-width="2" opacity="0.36000000000000004" stroke-linecap="round" filter="url(#bqbsqt_gc)"></line><line x1="86.78399999999999" y1="96" x2="105.21600000000001" y2="96" stroke="#d4f6ff" stroke-width="0.8" opacity="0.675" stroke-linecap="round"></line>
    <line x1="86.78399999999999" y1="126.4128" x2="105.21600000000001" y2="126.4128" stroke="#93ecff" stroke-width="2" opacity="0.24" stroke-linecap="round" filter="url(#bqbsqt_gc)"></line><line x1="86.78399999999999" y1="126.4128" x2="105.21600000000001" y2="126.4128" stroke="#d4f6ff" stroke-width="0.8" opacity="0.44999999999999996" stroke-linecap="round"></line>
    <circle cx="96" cy="42.0864" r="21.504000000000005" fill="#5ad6ee" opacity="0.22" filter="url(#bqbsqt_gc)"></circle><circle cx="96" cy="42.0864" r="10.080000000000002" fill="#5ad6ee" opacity="0.35" filter="url(#bqbsqt_gc)"></circle><circle cx="96" cy="42.0864" r="6.720000000000001" fill="#c8f4ff" opacity="1"></circle><circle cx="96" cy="42.0864" r="2.5536000000000003" fill="white" opacity="0.85"></circle>
    <circle cx="96" cy="149.9136" r="21.504000000000005" fill="#5ad6ee" opacity="0.22" filter="url(#bqbsqt_gc)"></circle><circle cx="96" cy="149.9136" r="10.080000000000002" fill="#5ad6ee" opacity="0.35" filter="url(#bqbsqt_gc)"></circle><circle cx="96" cy="149.9136" r="6.720000000000001" fill="#c8f4ff" opacity="1"></circle><circle cx="96" cy="149.9136" r="2.5536000000000003" fill="white" opacity="0.85"></circle>
    <circle cx="57.29279999999999" cy="61.44" r="17.203200000000002" fill="#5ad6ee" opacity="0.22" filter="url(#bqbsqt_gc)"></circle><circle cx="57.29279999999999" cy="61.44" r="8.064" fill="#5ad6ee" opacity="0.35" filter="url(#bqbsqt_gc)"></circle><circle cx="57.29279999999999" cy="61.44" r="5.376" fill="#5ad6ee" opacity="0.92"></circle><circle cx="57.29279999999999" cy="61.44" r="2.0428800000000003" fill="white" opacity="0.55"></circle>
    <circle cx="39.3216" cy="102.912" r="17.203200000000002" fill="#9b7bff" opacity="0.22" filter="url(#bqbsqt_gv)"></circle><circle cx="39.3216" cy="102.912" r="8.064" fill="#9b7bff" opacity="0.35" filter="url(#bqbsqt_gv)"></circle><circle cx="39.3216" cy="102.912" r="5.376" fill="#9b7bff" opacity="0.92"></circle><circle cx="39.3216" cy="102.912" r="2.0428800000000003" fill="white" opacity="0.55"></circle>
    <circle cx="65.5872" cy="137.472" r="17.203200000000002" fill="#5ad6ee" opacity="0.22" filter="url(#bqbsqt_gc)"></circle><circle cx="65.5872" cy="137.472" r="8.064" fill="#5ad6ee" opacity="0.35" filter="url(#bqbsqt_gc)"></circle><circle cx="65.5872" cy="137.472" r="5.376" fill="#5ad6ee" opacity="0.92"></circle><circle cx="65.5872" cy="137.472" r="2.0428800000000003" fill="white" opacity="0.55"></circle>
    <circle cx="134.7072" cy="61.44" r="17.203200000000002" fill="#5ad6ee" opacity="0.22" filter="url(#bqbsqt_gc)"></circle><circle cx="134.7072" cy="61.44" r="8.064" fill="#5ad6ee" opacity="0.35" filter="url(#bqbsqt_gc)"></circle><circle cx="134.7072" cy="61.44" r="5.376" fill="#5ad6ee" opacity="0.92"></circle><circle cx="134.7072" cy="61.44" r="2.0428800000000003" fill="white" opacity="0.55"></circle>
    <circle cx="152.6784" cy="102.912" r="17.203200000000002" fill="#9b7bff" opacity="0.22" filter="url(#bqbsqt_gv)"></circle><circle cx="152.6784" cy="102.912" r="8.064" fill="#9b7bff" opacity="0.35" filter="url(#bqbsqt_gv)"></circle><circle cx="152.6784" cy="102.912" r="5.376" fill="#9b7bff" opacity="0.92"></circle><circle cx="152.6784" cy="102.912" r="2.0428800000000003" fill="white" opacity="0.55"></circle>
    <circle cx="126.4128" cy="137.472" r="17.203200000000002" fill="#5ad6ee" opacity="0.22" filter="url(#bqbsqt_gc)"></circle><circle cx="126.4128" cy="137.472" r="8.064" fill="#5ad6ee" opacity="0.35" filter="url(#bqbsqt_gc)"></circle><circle cx="126.4128" cy="137.472" r="5.376" fill="#5ad6ee" opacity="0.92"></circle><circle cx="126.4128" cy="137.472" r="2.0428800000000003" fill="white" opacity="0.55"></circle>
    <rect width="192" height="192" rx="42.624" ry="42.624" fill="none" stroke="#5ad6ee" stroke-width="0.5760000000000001" opacity="0.28"></rect>
  </g>
</svg>